<svg height="503pt" viewBox="0 0 503 503.95511" width="503pt" xmlns="http://www.w3.org/2000/svg"><path d="m126.078125 423.292969-31.761719 53.996093c-4.308594 8.242188-1.359375 18.414063 6.695313 23.070313 8.050781 4.65625 18.339843 2.132813 23.332031-5.714844l32.195312-54.601562zm0 0" fill="#2c2f38"/><path d="m346.28125 436.363281 33.367188 58.28125c2.957031 5.648438 8.769531 9.222657 15.144531 9.308594s12.285156-3.328125 15.390625-8.894531c3.105468-5.566406 2.910156-12.390625-.507813-17.769532l-32.976562-57.675781zm0 0" fill="#2c2f38"/><path d="m31.921875 153.773438c-24.5-20.28125-35.941406-52.339844-29.820313-83.550782 6.121094-31.207031 28.824219-56.570312 59.171876-66.09375 30.34375-9.523437 63.46875-1.683594 86.328124 20.429688zm0 0" fill="#a5a5a4"/><path d="m472.070312 153.773438c24.5-20.28125 35.941407-52.339844 29.820313-83.550782-6.121094-31.207031-28.824219-56.570312-59.171875-66.09375-30.34375-9.523437-63.46875-1.683594-86.328125 20.429688zm0 0" fill="#a5a5a4"/><path d="m486.300781 234.304688c0 129.402343-104.902343 234.304687-234.304687 234.304687s-234.304688-104.902344-234.304688-234.304687c0-129.402344 104.902344-234.304688 234.304688-234.304688s234.304687 104.902344 234.304687 234.304688zm0 0" fill="#4482c3"/><path d="m451.589844 234.304688c0 2.949218-.085938 5.816406-.261719 8.679687-1.144531 29.121094-8.796875 57.613281-22.386719 83.394531-2.589844 5.203125-5.484375 10.246094-8.679687 15.097656-15.648438 24.589844-36.503907 45.445313-61.09375 61.09375-4.851563 3.195313-9.894531 6.089844-15.097657 8.679688-25.78125 13.59375-54.273437 21.242188-83.394531 22.386719-2.867187.175781-5.730469.261719-8.679687.261719-2.949219 0-5.8125-.085938-8.679688-.261719-29.121094-1.144531-57.613281-8.792969-83.394531-22.386719-5.203125-2.589844-10.246094-5.484375-15.097656-8.679688-24.589844-15.648437-45.445313-36.503906-61.09375-61.09375-3.195313-4.851562-6.089844-9.894531-8.679688-15.097656-7.019531-13.222656-12.4375-27.234375-16.140625-41.742187-3.589844-13.617188-5.683594-27.582031-6.246094-41.652344-.175781-2.863281-.261718-5.730469-.261718-8.679687 0-2.949219.085937-5.8125.261718-8.675782 1.144532-29.121094 8.796876-57.617187 22.386719-83.398437 2.589844-5.203125 5.484375-10.242188 8.679688-15.097657 15.648437-24.589843 36.503906-45.445312 61.09375-61.09375 4.851562-3.191406 9.894531-6.089843 15.097656-8.675781 25.78125-13.59375 54.273437-21.246093 83.394531-22.390625 2.867188-.175781 5.730469-.261718 8.679688-.261718 2.949218 0 5.8125.085937 8.679687.261718 29.121094 1.144532 57.613281 8.796875 83.394531 22.390625 5.203126 2.585938 10.246094 5.484375 15.097657 8.675781 24.589843 15.648438 45.445312 36.503907 61.09375 61.09375 3.195312 4.855469 6.089843 9.894532 8.679687 15.097657 4.203125 7.902343 7.796875 16.113281 10.757813 24.558593 6.933593 18.882813 10.855469 38.738282 11.628906 58.839844.175781 2.863282.261719 5.726563.261719 8.675782zm0 0" fill="#90bae1"/><path d="m439.699219 166.789062c-178.417969-21-308.152344 56.410157-380.789063 117.847657-3.589844-13.617188-5.683594-27.582031-6.246094-41.652344-.175781-2.863281-.261718-5.730469-.261718-8.679687 0-2.949219.085937-5.8125.261718-8.675782 1.144532-29.121094 8.796876-57.617187 22.386719-83.398437 2.589844-5.203125 5.484375-10.242188 8.679688-15.097657 15.648437-24.589843 36.503906-45.445312 61.09375-61.09375 4.851562-3.191406 9.894531-6.089843 15.097656-8.675781 25.78125-13.59375 54.273437-21.246093 83.394531-22.390625 2.867188-.175781 5.730469-.261718 8.679688-.261718 2.949218 0 5.8125.085937 8.679687.261718 29.121094 1.144532 57.613281 8.796875 83.394531 22.390625 5.203126 2.585938 10.246094 5.484375 15.097657 8.675781 24.589843 15.648438 45.445312 36.503907 61.09375 61.09375 3.195312 4.855469 6.089843 9.894532 8.679687 15.097657 4.203125 7.902343 7.796875 16.113281 10.757813 24.558593zm0 0" fill="#b0d3f0"/><g fill="#5e5f62"><path d="m260.675781 34.972656v17.09375c0 4.792969-3.886719 8.679688-8.679687 8.679688-4.792969 0-8.679688-3.886719-8.679688-8.679688v-17.09375c2.867188-.175781 5.730469-.261718 8.679688-.261718 2.949218 0 5.8125.085937 8.679687.261718zm0 0"/><path d="m260.675781 416.542969v17.09375c-2.867187.175781-5.730469.261719-8.679687.261719-2.949219 0-5.8125-.085938-8.679688-.261719v-17.09375c0-4.792969 3.886719-8.679688 8.679688-8.679688 4.792968 0 8.679687 3.886719 8.679687 8.679688zm0 0"/><path d="m165.214844 84.003906c-4.175782 2.347656-9.460938.917969-11.886719-3.210937l-8.503906-14.753907c4.851562-3.191406 9.894531-6.089843 15.097656-8.675781l8.503906 14.75c2.363281 4.175781.933594 9.472657-3.210937 11.890625zm0 0"/><path d="m359.167969 402.570312c-4.851563 3.195313-9.894531 6.089844-15.097657 8.679688l-8.503906-14.753906c-1.550781-2.695313-1.546875-6.015625.015625-8.707032 1.5625-2.691406 4.4375-4.347656 7.550781-4.339843 3.109376.007812 5.980469 1.671875 7.53125 4.367187zm0 0"/><path d="m101.695312 147.527344c-2.425781 4.128906-7.714843 5.558594-11.890624 3.207031l-14.753907-8.503906c2.589844-5.203125 5.484375-10.242188 8.679688-15.097657l14.753906 8.503907c2.007813 1.144531 3.476563 3.042969 4.078125 5.277343.601562 2.230469.289062 4.609376-.867188 6.613282zm0 0"/><path d="m420.261719 341.476562-14.753907-8.503906c-2.695312-1.550781-4.359374-4.421875-4.367187-7.53125-.007813-3.113281 1.648437-5.988281 4.339844-7.550781 2.691406-1.558594 6.007812-1.566406 8.707031-.015625l14.753906 8.503906zm0 0"/><path d="m78.4375 234.304688c0 4.792968-3.886719 8.679687-8.679688 8.679687h-17.09375c-.175781-2.863281-.261718-5.730469-.261718-8.679687 0-2.949219.085937-5.8125.261718-8.675782h17.09375c4.792969 0 8.679688 3.882813 8.679688 8.675782zm0 0"/><path d="m451.589844 234.304688c0 2.949218-.085938 5.816406-.261719 8.679687h-17.09375c-4.792969 0-8.679687-3.886719-8.679687-8.679687 0-4.792969 3.886718-8.675782 8.679687-8.675782h17.09375c.175781 2.863282.261719 5.726563.261719 8.675782zm0 0"/><path d="m98.484375 332.972656-14.753906 8.503906c-3.195313-4.851562-6.089844-9.894531-8.679688-15.097656l14.753907-8.503906c4.167968-2.398438 9.492187-.960938 11.890624 3.210938 2.394532 4.167968.957032 9.492187-3.210937 11.886718zm0 0"/><path d="m428.941406 142.230469-14.753906 8.503906c-4.167969 2.398437-9.492188.960937-11.890625-3.207031-2.394531-4.171875-.957031-9.496094 3.210937-11.890625l14.753907-8.503907c3.195312 4.855469 6.089843 9.894532 8.679687 15.097657zm0 0"/><path d="m168.425781 396.496094-8.503906 14.753906c-5.203125-2.589844-10.246094-5.484375-15.097656-8.679688l8.503906-14.753906c1.550781-2.695312 4.421875-4.359375 7.53125-4.367187 3.113281-.007813 5.988281 1.648437 7.550781 4.339843 1.5625 2.691407 1.566406 6.011719.015625 8.707032zm0 0"/><path d="m359.167969 66.039062-8.503907 14.753907c-2.394531 4.167969-7.71875 5.605469-11.886718 3.210937-4.171875-2.398437-5.609375-7.71875-3.210938-11.890625l8.503906-14.75c5.203126 2.585938 10.246094 5.484375 15.097657 8.675781zm0 0"/></g><path d="m262.324219 269.015625h-20.65625c-8.910157 0-16.375-6.75-17.269531-15.617187l-13.882813-138.847657c-.492187-4.882812 1.105469-9.742187 4.398437-13.378906 3.289063-3.640625 7.964844-5.714844 12.871094-5.714844h48.421875c4.90625 0 9.582031 2.074219 12.871094 5.714844 3.292969 3.636719 4.890625 8.496094 4.398437 13.378906l-13.882812 138.847657c-.894531 8.867187-8.359375 15.617187-17.269531 15.617187zm0 0" fill="#c03a2b"/><path d="m278.03125 329.761719c0 14.378906-11.65625 26.035156-26.035156 26.035156s-26.035156-11.65625-26.035156-26.035156c0-14.378907 11.65625-26.03125 26.035156-26.03125s26.035156 11.652343 26.035156 26.03125zm0 0" fill="#c03a2b"/></svg>