<svg height="512pt" viewBox="0 0 512 512.47003" width="512pt" xmlns="http://www.w3.org/2000/svg"><path d="m185.695312 44.136719h35.3125v29.0625h-35.3125zm0 0" fill="#35495e"/><path d="m285.359375 87.921875c-79.203125-35.011719-171.898437-15.929687-230.839844 47.515625-58.9375 63.445312-71.148437 157.289062-30.410156 233.707031 40.742187 76.414063 125.46875 118.578125 210.996094 105.003907 85.527343-13.578126 153.027343-79.90625 168.101562-165.183594zm0 0" fill="#547580"/><path d="m367.28125 308.964844c-15.191406 70.542968-73.796875 123.46875-145.519531 131.40625-71.722657 7.933594-140.484375-30.890625-170.730469-96.410156-30.242188-65.515626-15.195312-143.03125 37.367188-192.472657 52.566406-49.4375 130.859374-59.714843 194.402343-25.519531l62.585938 135.59375zm0 0" fill="#90bae1"/><path d="m345.386719 261.5625c-157.21875-26.308594-238.078125 48.992188-277.1875 111.226562-46.390625-63.175781-42.816407-150.066406 8.613281-209.214843 51.425781-59.152344 136.976562-74.769531 205.988281-37.605469zm0 0" fill="#b0d3f0"/><path d="m127.964844 462.125-13.949219 38.222656c-3.503906 8.890625-13.445313 13.378906-22.429687 10.128906-8.988282-3.25-13.757813-13.058593-10.761719-22.132812l15.449219-42.285156zm0 0" fill="#35495e"/><path d="m310.429688 446.058594 15.449218 42.285156c2.355469 5.976562 1.277344 12.765625-2.816406 17.71875-4.097656 4.953125-10.558594 7.289062-16.875 6.101562s-11.488281-5.714843-13.5-11.816406l-13.949219-38.222656zm0 0" fill="#35495e"/><path d="m159.214844 0h88.273437c14.628907 0 26.484375 11.855469 26.484375 26.484375v17.652344h-141.242187v-17.652344c0-14.628906 11.855469-26.484375 26.484375-26.484375zm0 0" fill="#2c3e50"/><path d="m221.007812 167.722656v106.816406l-74.949218 74.945313c-4.382813 4.820313-11.0625 6.835937-17.378906 5.238281-6.316407-1.59375-11.242188-6.535156-12.816407-12.859375-1.570312-6.320312.46875-12.996093 5.304688-17.359375l64.527343-64.621094v-92.160156c.03125-9.738281 7.917969-17.625 17.65625-17.652344 9.71875.070313 17.582032 7.933594 17.65625 17.652344zm0 0" fill="#7f8c8d"/><path d="m300.453125 79.449219h194.207031c9.753906 0 17.65625 7.902343 17.65625 17.652343v194.207032c0 9.753906-7.902344 17.65625-17.65625 17.65625h-194.207031c-9.75 0-17.652344-7.902344-17.652344-17.65625v-194.207032c0-9.75 7.902344-17.652343 17.652344-17.652343zm0 0" fill="#e64c3c"/><g fill="#f0c419"><path d="m399.234375 203.035156h-3.351563c-9.070312 0-16.660156-6.867187-17.570312-15.890625l-5.292969-52.964843c-.5-4.964844 1.125-9.910157 4.472657-13.609376 3.347656-3.699218 8.101562-5.8125 13.09375-5.8125h13.945312c4.992188 0 9.746094 2.113282 13.09375 5.8125 3.347656 3.699219 4.972656 8.644532 4.472656 13.609376l-5.296875 52.964843c-.90625 9.023438-8.5 15.890625-17.566406 15.890625zm0 0"/><path d="m397.558594 238.34375c9.75 0 17.65625 7.90625 17.65625 17.65625s-7.90625 17.65625-17.65625 17.65625-17.65625-7.90625-17.65625-17.65625 7.90625-17.65625 17.65625-17.65625zm0 0"/></g></svg>