<svg height="512pt" viewBox="-24 0 512 512" width="512pt" xmlns="http://www.w3.org/2000/svg"><path d="m256.039062 512c-114.6875 0-208-93.3125-208-208v-96c0-114.6875 93.3125-208 208-208s208 93.3125 208 208v96c0 114.6875-93.296874 208-208 208zm0 0" fill="#f9ddaa"/><g fill="#f7ce8a"><path d="m256.039062 0c-114.6875 0-208 93.3125-208 208v40.433594l3.199219.910156c25.410157 7.3125 51.25 11.007812 76.800781 11.007812 67.425782 0 130.785157-23.632812 181.472657-67.085937 37.007812 31.277344 81.96875 52.910156 129.375 61.886719l2.71875.511718 22.433593.335938v-48c0-114.6875-93.296874-208-208-208zm0 0"/><path d="m256.039062 480c-114.6875 0-208-93.3125-208-208v32c0 114.6875 93.3125 208 208 208s208-93.3125 208-208v-32c0 114.6875-93.296874 208-208 208zm0 0"/><path d="m48.039062 208v59.296875c10.207032 3.007813 20.910157 4.703125 32 4.703125 40.609376 0 76.894532-21.023438 97.085938-56.273438 20.195312-35.230468 19.984375-77.167968-.542969-112.207031l-38.878906-66.382812c-54.097656 37.617187-89.664063 100.128906-89.664063 170.863281zm0 0"/></g><path d="m304.039062 256h64v32h-64zm0 0" fill="#57565c"/><path d="m144.039062 256h64v32h-64zm0 0" fill="#57565c"/><path d="m323.078125 409.390625c-9.152344-12.636719-33.421875-25.390625-67.039063-25.390625-33.617187 0-57.886718 12.753906-67.039062 25.390625l-25.921875-18.78125c17.265625-23.808594 52.878906-38.609375 92.960937-38.609375 40.078126 0 75.695313 14.800781 92.960938 38.609375zm0 0" fill="#57565c"/><path d="m128.039062 228.351562c-22.542968 0-45.40625-3.28125-67.96875-9.757812l-11.886718-3.410156.09375-12.449219c2.882812-113.695313 94.128906-202.734375 207.761718-202.734375 114.6875 0 208 93.3125 208 208v16l-19.199218-.289062c-51.890625-9.824219-99.328125-36.09375-135.457032-74.621094-47.214843 50.589844-112.304687 79.261718-181.34375 79.261718zm0 0" fill="#c59969"/><path d="m336.039062 64h32v32h-32zm0 0" fill="#fff"/><path d="m384.039062 128h32v32h-32zm0 0" fill="#fff"/><path d="m171.496094 224.238281c1.933594-2.78125 3.917968-5.519531 5.628906-8.511719 20.195312-35.230468 19.984375-77.167968-.542969-112.207031l-39.070312-66.71875c-52.65625 36.382813-87.472657 96.496094-89.21875 165.917969l-.109375 12.464844 11.886718 3.410156c22.542969 6.476562 45.410157 9.757812 67.96875 9.757812 14.734376 0 29.214844-1.566406 43.457032-4.113281zm0 0" fill="#ba8a5a"/><path d="m80.039062 240c-28.992187 0-54.914062-15.007812-69.328124-40.175781-14.417969-25.152344-14.273438-55.105469.382812-80.128907l68.945312-117.679687 68.945313 117.679687c14.65625 25.007813 14.796875 54.976563.382813 80.128907-14.417969 25.167969-40.335938 40.175781-69.328126 40.175781zm0 0" fill="#64ccf4"/><path d="m149.367188 167.824219c-14.417969 25.167969-40.335938 40.175781-69.328126 40.175781-28.992187 0-54.914062-15.007812-69.328124-40.175781-4.335938-7.550781-7.183594-15.566407-8.878907-23.726563-3.90625 18.734375-1.058593 38.367188 8.878907 55.726563 14.433593 25.167969 40.335937 40.175781 69.328124 40.175781 28.992188 0 54.910157-15.007812 69.328126-40.175781 9.953124-17.359375 12.800781-36.992188 8.878906-55.726563-1.695313 8.160156-4.542969 16.175782-8.878906 23.726563zm0 0" fill="#43ade8"/><path d="m96.039062 144h32v32h-32zm0 0" fill="#fff"/></svg>