<?xml version="1.0" encoding="iso-8859-1"?>
<!-- Generator: Adobe Illustrator 19.0.0, SVG Export Plug-In . SVG Version: 6.00 Build 0)  -->
<svg xmlns="http://www.w3.org/2000/svg" xmlns:xlink="http://www.w3.org/1999/xlink" version="1.1" id="Layer_1" x="0px" y="0px" viewBox="0 0 512 512" style="enable-background:new 0 0 512 512;" xml:space="preserve" width="512" height="512">
<g id="XMLID_1890_">
	<g id="XMLID_1416_">
		<g id="XMLID_1376_">
			<path id="XMLID_2383_" style="fill:#A24223;" d="M489.064,459.288c0,2.578-0.274,5.105-0.812,7.581     C482.792,492.383,450.154,512,410.727,512c-20.906,0-39.905-5.511-53.96-14.492c-11.793-7.551-20.094-17.537-23.119-28.761     c-0.822-3.065-1.258-6.231-1.258-9.458c0-2.568,0.274-5.084,0.802-7.551c4.77-22.337,30.375-40.169,63.145-44.258     c4.658-0.579,9.479-0.883,14.391-0.883c38.342,0,70.269,18.531,77.008,43.02C488.607,452.752,489.064,455.979,489.064,459.288z"/>
			<path id="XMLID_2107_" style="fill:#8B381E;" d="M395.624,433.413c-4.019,20.561-15.592,41.238-32.588,58.234     c-2.036,2.036-4.125,3.988-6.266,5.866c-15.012-9.611-24.38-23.177-24.38-38.221c0-25.794,27.556-47.262,63.941-51.809     C397.607,415.606,397.396,424.362,395.624,433.413z"/>
			<path id="XMLID_2044_" style="fill:#8B381E;" d="M410.727,512c-43.264,0-78.331-23.599-78.331-52.706     c0-3.123,0.401-6.172,1.182-9.136c6.435,24.749,38.527,43.559,77.149,43.559s70.714-18.81,77.149-43.559     c0.781,2.964,1.182,6.013,1.182,9.136C489.058,488.401,453.991,512,410.727,512z"/>
			<path id="XMLID_2376_" style="fill:#8B381E;" d="M489.064,459.288c0,2.578-0.274,5.105-0.812,7.581     c-1.228-0.132-2.446-0.568-3.542-1.33c-1.644-1.137-38.392-25.96-69.112-0.396c-13.082,10.889-27.269,14.503-40.331,14.503     c-17.902,0-33.683-6.78-41.62-10.9c-0.822-3.065-1.258-6.231-1.258-9.458c0-2.568,0.274-5.084,0.802-7.551     c1.147,0.111,2.283,0.487,3.319,1.157c0.091,0.061,10.443,6.586,24.387,9.743c17.699,3.999,32.821,0.903,44.959-9.195     c16.563-13.772,37.053-18.156,59.268-12.696c9.641,2.375,17.608,6.13,22.611,8.87     C488.607,452.752,489.064,455.979,489.064,459.288z"/>
		</g>
		<g id="XMLID_1334_">
			<path id="XMLID_2108_" style="fill:#D8AD8F;" d="M281.382,499.169H116.249c-15.497,0-20.698-20.741-7.037-28.041     c3.397-1.815,6.868-3.534,10.391-5.159c10.286-4.705,21.089-8.534,32.271-11.372c15.012-3.809,30.742-5.834,46.935-5.834     c11.932,0,23.61,1.097,34.93,3.197c15.497,2.88,30.341,7.638,44.287,14.01c3.524,1.625,6.994,3.344,10.391,5.159     C302.081,478.428,296.88,499.169,281.382,499.169z"/>
			<path id="XMLID_2105_" style="fill:#C19476;" d="M281.382,499.169H239.87c-7.395-12.744-9.716-28.938-6.34-46.197     c0.063-0.338,0.137-0.675,0.211-1.013c15.497,2.88,30.341,7.638,44.287,14.01c3.524,1.625,6.994,3.344,10.391,5.159     C302.081,478.428,296.88,499.169,281.382,499.169z"/>
			<path id="XMLID_1433_" style="fill:#C19476;" d="M278.03,465.971c-24.446,10.028-51.199,15.565-79.214,15.565     s-54.769-5.537-79.214-15.565c10.293-4.705,21.09-8.539,32.279-11.377c15.01-3.809,30.74-5.828,46.936-5.828     C227.071,448.766,253.9,454.934,278.03,465.971z"/>
			<g id="XMLID_1427_">
				<g id="XMLID_2203_">
					<path id="XMLID_2204_" style="fill:#D8AD8F;" d="M425.787,191.836c-5.146,0-10.192,0.504-15.061,1.476       c-35.76,7.013-62.804,38.598-62.804,76.389c0,33.351,21.065,61.858,50.594,72.933c8.489,3.191,17.685,4.932,27.271,4.932       c42.925,0,77.865-34.928,77.865-77.865C503.652,226.764,468.712,191.836,425.787,191.836z M425.787,309.598       c-6.357,0-12.374-1.501-17.71-4.15c-13.144-6.534-22.188-20.106-22.188-35.747c0-16.675,10.28-30.979,24.836-36.933       c4.654-1.905,9.738-2.952,15.061-2.952c21.998,0,39.885,17.886,39.885,39.885C465.672,291.699,447.786,309.598,425.787,309.598       z"/>
				</g>
			</g>
			<path id="XMLID_1426_" style="fill:#C19476;" d="M385.89,269.701c0,15.641,9.044,29.213,22.188,35.747     c-2.056,12.816-5.285,25.253-9.561,37.185c-29.529-11.075-50.594-39.582-50.594-72.933c0-37.791,27.044-69.376,62.804-76.389     v39.456C396.17,238.721,385.89,253.025,385.89,269.701z"/>
			<path id="XMLID_2113_" style="fill:#F9E8D4;" d="M389.284,166.898v105.253c0,33.927-8.872,65.787-24.433,93.385     c-27.387,48.602-75.493,83.964-132.345,94.102c-10.94,1.952-22.196,2.975-33.695,2.975c-105.19,0-190.463-85.272-190.463-190.462     V166.898c0-10.064,8.165-18.209,18.219-18.209h344.498C381.118,148.69,389.284,156.834,389.284,166.898z"/>
			<path id="XMLID_2111_" style="fill:#D8AD8F;" d="M364.851,365.537c-27.387,48.602-75.493,83.964-132.345,94.102     c0.243-2.194,0.591-4.42,1.023-6.667c4.019-20.561,15.603-41.239,32.598-58.234c21.374-21.373,48.908-34.138,73.668-34.138     C348.921,360.6,357.361,362.277,364.851,365.537z"/>
			<path id="XMLID_1406_" style="fill:#D8AD8F;" d="M389.284,166.898v105.253c0,105.19-85.273,190.463-190.473,190.463     c-24.612,0-48.127-4.663-69.712-13.155c16.152,4.452,33.157,6.826,50.723,6.826c105.201,0,190.473-85.272,190.473-190.463     V160.569c0-4.547-1.656-8.693-4.41-11.879h5.18C381.118,148.69,389.284,156.834,389.284,166.898z"/>
			<rect id="XMLID_1405_" x="8.348" y="208.042" style="fill:#FB4239;" width="380.936" height="61.663"/>
			<path id="XMLID_1380_" style="fill:#E21717;" d="M389.284,208.042v61.663h-19.032c0.032-1.287,0.042-2.585,0.042-3.882v-57.78     H389.284z"/>
		</g>
		<g id="XMLID_1985_">
			<path id="XMLID_1432_" style="fill:#A24223;" d="M351.844,480.458c-27.198,27.198-63.013,36.637-85.086,23.92     c-2.75-1.583-5.287-3.511-7.571-5.795c-1.817-1.817-3.41-3.796-4.78-5.917c-14.198-21.901-4.983-58.852,22.906-86.741     c27.117-27.117,62.8-36.576,84.883-24.032c2.831,1.603,5.44,3.572,7.774,5.907c1.817,1.816,3.41,3.795,4.78,5.917     C388.948,415.618,379.743,452.569,351.844,480.458z"/>
			<path id="XMLID_1982_" style="fill:#8B381E;" d="M351.848,480.46c-30.592,30.592-72.076,38.701-92.657,18.12     c-2.208-2.208-4.081-4.647-5.625-7.296c22.051,12.95,58.044,3.558,85.354-23.752c27.31-27.31,36.702-63.303,23.752-85.354     c2.648,1.544,5.088,3.417,7.296,5.625C390.549,408.385,382.44,449.868,351.848,480.46z"/>
			<path id="XMLID_343_" style="fill:#8B381E;" d="M374.75,393.717c-0.964,0.792-2.131,1.35-3.44,1.583     c-1.969,0.355-45.507,8.779-49.15,48.582c-3.674,40.179-40.655,55.818-55.402,60.496c-2.75-1.583-5.287-3.511-7.571-5.795     c-1.817-1.817-3.41-3.796-4.78-5.917c0.893-0.731,1.969-1.258,3.166-1.522c0.112-0.02,12.046-2.72,24.134-10.352     c15.345-9.692,23.849-22.571,25.29-38.291c1.969-21.454,13.356-39.052,32.932-50.886c8.505-5.145,16.796-8.129,22.266-9.722     c2.831,1.603,5.44,3.572,7.774,5.907C371.786,389.617,373.379,391.596,374.75,393.717z"/>
		</g>
	</g>
	<g id="XMLID_1370_">
		<path id="XMLID_1365_" style="fill:#D8AD8F;" d="M193.46,136.75c-1.948,0-3.896-0.743-5.382-2.23    c-12.362-12.362-12.362-32.478,0-44.839l9.649-9.65c6.427-6.426,6.427-16.884,0-23.312l-9.649-9.648    c-12.362-12.363-12.362-32.479,0-44.84c2.972-2.973,7.792-2.972,10.764-0.001c2.972,2.972,2.973,7.792,0,10.764    c-6.427,6.428-6.427,16.885,0,23.313l9.649,9.648c12.362,12.363,12.362,32.479,0,44.84l-9.649,9.65    c-6.427,6.426-6.427,16.885,0,23.312c2.973,2.972,2.972,7.792,0,10.764C197.356,136.007,195.408,136.75,193.46,136.75z"/>
		<path id="XMLID_1371_" style="fill:#D8AD8F;" d="M237.96,136.75c-1.948,0-3.896-0.743-5.382-2.23    c-12.362-12.362-12.362-32.478,0-44.839l9.65-9.65c6.427-6.427,6.427-16.884,0-23.312c-2.973-2.972-2.972-7.792,0-10.764    c2.972-2.971,7.792-2.972,10.764,0.001c12.362,12.362,12.362,32.478,0,44.839l-9.65,9.65c-6.427,6.427-6.427,16.884,0,23.312    c2.973,2.972,2.973,7.792,0,10.764C241.856,136.007,239.908,136.75,237.96,136.75z"/>
		<path id="XMLID_389_" style="fill:#D8AD8F;" d="M150.022,136.75c-1.948,0-3.896-0.743-5.382-2.23    c-12.362-12.362-12.362-32.478,0-44.839l9.649-9.65c6.427-6.427,6.427-16.884,0-23.312c-2.973-2.972-2.973-7.792,0-10.764    c2.972-2.972,7.792-2.971,10.764,0.001c12.362,12.362,12.362,32.478,0,44.839l-9.649,9.65c-6.427,6.427-6.427,16.884,0,23.312    c2.973,2.972,2.973,7.792,0,10.764C153.918,136.007,151.969,136.75,150.022,136.75z"/>
	</g>
</g>















</svg>
