<svg height="512pt" viewBox="-75 0 512 512.001" width="512pt" xmlns="http://www.w3.org/2000/svg"><path d="m302.683594 417.195312c-2.359375-1.457031-5.304688-1.589843-7.785156-.351562l-48 24c-3.789063 1.894531-5.441407 6.414062-3.773438 10.308594l24 56c1.257812 2.941406 4.152344 4.847656 7.351562 4.847656h24c4.417969 0 8-3.582031 8-8v-80c0-2.773438-1.4375-5.347656-3.792968-6.804688zm0 0" fill="#b098d4"/><path d="m110.054688 440.84375-48-24c-2.480469-1.238281-5.425782-1.105469-7.785157.351562-2.359375 1.457032-3.792969 4.03125-3.792969 6.804688v80c0 4.417969 3.582032 8 8 8h24c3.199219 0 6.09375-1.90625 7.351563-4.847656l24-56c1.671875-3.894532.015625-8.414063-3.773437-10.308594zm0 0" fill="#b098d4"/><path d="m178.476562 152c-92.636718 0-168 75.363281-168 168s75.363282 168 168 168c92.636719 0 168-75.363281 168-168s-75.363281-168-168-168zm0 0" fill="#d0e05e"/><path d="m306.476562 320c0 70.691406-57.308593 128-128 128-70.691406 0-128-57.308594-128-128s57.308594-128 128-128c70.691407 0 128 57.308594 128 128zm0 0" fill="#f4f0f9"/><path d="m210.476562 432c-70.691406 0-128-57.308594-128-128 0-43.730469 21.933594-82.332031 55.398438-105.421875-50.789062 16.976563-87.398438 64.921875-87.398438 121.421875 0 70.691406 57.308594 128 128 128 26.960938 0 51.972657-8.34375 72.601563-22.578125-12.757813 4.261719-26.410156 6.578125-40.601563 6.578125zm0 0" fill="#e8e2f3"/><path d="m333.921875 119.003906c-9.039063-5.5-19.761719-7.90625-30.28125-6.710937-9.378906 1.066406-18.386719 4.882812-25.605469 10.972656-3.96875 3.347656-7.375 7.347656-10.074218 11.78125l-8.320313 13.667969c-2.261719 3.722656-1.042969 8.730468 2.675781 10.992187l68.335938 41.597657c3.960937 2.410156 8.722656.828124 11.125-2.90625 2.835937-4.40625 5.464844-8.960938 8.1875-13.433594 13.761718-22.609375 6.566406-52.199219-16.042969-65.960938zm0 0" fill="#bba7da"/><path d="m333.921875 119.003906c-9.039063-5.5-19.761719-7.90625-30.28125-6.710937-2.257813.257812-4.492187.675781-6.683594 1.246093 4.535157 1.175782 8.90625 3.011719 12.9375 5.464844 22.609375 13.761719 29.808594 43.351563 16.046875 65.960938-1.992187 3.273437-3.9375 6.585937-5.945312 9.855468l10.65625 6.484376c3.960937 2.414062 8.722656.832031 11.125-2.902344 2.835937-4.410156 5.464844-8.960938 8.1875-13.4375 13.761718-22.609375 6.566406-52.199219-16.042969-65.960938zm0 0" fill="#b098d4"/><path d="m88.992188 135.046875c-13.765626-22.605469-43.351563-29.804687-65.960938-16.042969-22.609375 13.761719-29.804688 43.351563-16.042969 65.960938l8.316407 13.664062c2.265624 3.722656 7.269531 4.945313 10.996093 2.675782l68.335938-41.597657c3.71875-2.261719 4.9375-7.269531 2.671875-10.992187zm0 0" fill="#bba7da"/><path d="m31.011719 184.964844c-13.757813-22.609375-6.5625-52.199219 16.046875-65.960938 4.109375-2.5 8.449218-4.300781 12.886718-5.449218-12.113281-3.117188-25.414062-1.550782-36.914062 5.449218-22.605469 13.761719-29.804688 43.351563-16.042969 65.960938l8.320313 13.664062c2.265625 3.722656 7.265625 4.945313 10.992187 2.675782l10.695313-6.511719zm0 0" fill="#b098d4"/><path d="m178.476562 184c-74.992187 0-136 61.007812-136 136s61.007813 136 136 136c74.988282 0 136-61.007812 136-136s-61.011718-136-136-136zm8 255.726562v-15.726562c0-4.417969-3.582031-8-8-8-4.417968 0-8 3.582031-8 8v15.726562c-59.808593-3.957031-107.769531-51.921874-111.726562-111.726562h15.726562c4.417969 0 8-3.582031 8-8s-3.582031-8-8-8h-15.726562c3.957031-59.804688 51.921875-107.769531 111.726562-111.726562v15.726562c0 4.417969 3.582032 8 8 8 4.417969 0 8-3.582031 8-8v-15.726562c59.804688 3.957031 107.769532 51.921874 111.726563 111.726562h-15.726563c-4.417968 0-8 3.582031-8 8s3.582032 8 8 8h15.726563c-3.957031 59.804688-51.921875 107.769531-111.726563 111.726562zm0 0" fill="#f7ad7d"/><path d="m178.476562 328h-56c-4.417968 0-8-3.582031-8-8s3.582032-8 8-8h52.6875l53.65625-53.65625c3.125-3.125 8.1875-3.125 11.3125 0s3.125 8.1875 0 11.3125l-56 56c-1.5 1.5-3.535156 2.34375-5.65625 2.34375zm0 0" fill="#b098d4"/><path d="m178.476562 296c-13.234374 0-24 10.765625-24 24s10.765626 24 24 24c13.234376 0 24-10.765625 24-24s-10.765624-24-24-24zm0 0" fill="#ffdb7e"/><g fill="#f9c19e"><path d="m242.476562 120h-32c-6.5625 0-10.359374-7.855469-6.246093-12.996094l21.601562-27.003906h-15.355469c-4.417968 0-8-3.582031-8-8s3.582032-8 8-8h32c6.5625 0 10.359376 7.855469 6.246094 12.996094l-21.601562 27.003906h15.355468c4.417969 0 8 3.582031 8 8s-3.582031 8-8 8zm0 0"/><path d="m298.476562 88h-32c-6.5625 0-10.359374-7.855469-6.246093-12.996094l21.601562-27.003906h-15.355469c-4.417968 0-8-3.582031-8-8s3.582032-8 8-8h32c6.5625 0 10.359376 7.855469 6.246094 12.996094l-21.601562 27.003906h15.355468c4.417969 0 8 3.582031 8 8s-3.582031 8-8 8zm0 0"/><path d="m354.476562 56h-32c-6.5625 0-10.359374-7.855469-6.246093-12.996094l21.601562-27.003906h-15.355469c-4.417968 0-8-3.582031-8-8s3.582032-8 8-8h32c6.5625 0 10.359376 7.855469 6.246094 12.996094l-21.601562 27.003906h15.355468c4.417969 0 8 3.582031 8 8s-3.582031 8-8 8zm0 0"/></g></svg>