<svg height="512pt" viewBox="-24 0 512 512" width="512pt" xmlns="http://www.w3.org/2000/svg"><path d="m208 512c-114.6875 0-208-93.3125-208-208v-96c0-114.6875 93.3125-208 208-208s208 93.3125 208 208v96c0 114.6875-93.3125 208-208 208zm0 0" fill="#f9ddaa"/><path d="m208 0c-114.6875 0-208 93.3125-208 208v40.433594l3.199219.910156c25.410156 7.3125 51.25 11.007812 76.800781 11.007812 67.425781 0 130.785156-23.632812 181.472656-67.085937 37.007813 31.277344 81.96875 52.910156 129.375 61.886719l2.71875.511718 22.433594.335938v-48c0-114.6875-93.3125-208-208-208zm0 0" fill="#f7ce8a"/><path d="m79.886719 228.351562c-22.558594 0-45.421875-3.28125-67.984375-9.757812l-11.902344-3.410156.0976562-12.449219c3.0234378-120.046875 104.6210938-212.605469 227.0859378-201.886719 108.082031 9.457032 188.816406 104.304688 188.816406 212.800782v10.351562l-19.199219-.289062c-51.90625-9.824219-99.375-36.09375-135.503906-74.621094-47.25 50.589844-112.367187 79.261718-181.410156 79.261718zm0 0" fill="#c59969"/><path d="m288 64h32v32h-32zm0 0" fill="#fff"/><path d="m336 128h32v32h-32zm0 0" fill="#fff"/><path d="m399.953125 352h-127.953125v96h26.367188l-10.222657 15.902344c-24.6875 10.335937-51.746093 16.097656-80.144531 16.097656-114.6875 0-208-93.3125-208-208v32c0 114.6875 93.3125 208 208 208 18.6875 0 36.703125-2.703125 53.953125-7.34375 88.574219-23.855469 154.046875-104.65625 154.046875-200.65625v-32c0 28.335938-5.742188 55.359375-16.046875 80zm0 0" fill="#f7ce8a"/><path d="m400 512h-104.734375l61.726563-96h-52.992188v-32h111.601562l-61.730468 96h46.128906zm0 0" fill="#57565c"/><path d="m432 480h32v32h-32zm0 0" fill="#57565c"/><path d="m272 384c0 35.347656-28.652344 64-64 64s-64-28.652344-64-64 28.652344-64 64-64 64 28.652344 64 64zm0 0" fill="#e76e54"/><path d="m208 352c29.742188 0 54.574219 20.464844 61.726562 48 1.34375-5.152344 2.273438-10.449219 2.273438-16 0-35.296875-28.703125-64-64-64s-64 28.703125-64 64c0 5.550781.929688 10.847656 2.273438 16 7.152343-27.535156 31.984374-48 61.726562-48zm0 0" fill="#dd523c"/><g fill="#57565c"><path d="m248.835938 270.316406 14.308593-28.621094 63.996094 32-14.308594 28.617188zm0 0"/><path d="m88.839844 273.683594 63.996094-31.996094 14.308593 28.617188-63.996093 32zm0 0"/></g></svg>